<svg width="41" height="57" viewBox="0 0 41 57" fill="none" xmlns="http://www.w3.org/2000/svg">
<path d="M16.9255 50.4179L18.128 51.8454L19.9945 51.8291C20.4633 51.8251 21.1514 51.8046 21.797 51.7402C22.3625 51.6838 23.6161 51.5349 24.7474 50.6169C25.6975 49.8458 26.1534 48.8127 26.2686 48.5517C26.2766 48.5335 26.283 48.519 26.2878 48.5087L26.321 48.4367L26.3513 48.3636C26.4266 48.1815 26.5078 47.9808 26.596 47.7629C27.5826 45.3251 29.4428 40.7285 33.7366 35.9285L35.5932 33.8529L34.2724 31.4013C34.0116 30.9171 33.4943 30.0014 32.8476 29.1693C32.5326 28.764 32.0648 28.2177 31.4599 27.7488C30.9524 27.3553 29.6964 26.5029 27.9637 26.6756C26.7523 26.7964 25.8542 27.393 25.4831 27.6538C25.2336 27.8292 24.9942 28.021 24.7678 28.2185C24.2488 20.9438 23.964 13.0196 23.8552 7.93553L23.7834 4.58146L20.4641 4.09465C19.2019 3.90953 17.8874 4.18183 17.1154 4.38265C16.263 4.60441 15.1934 4.97572 14.3276 5.5077L12.4958 6.63317L12.4383 8.78232C12.3259 12.9895 12.4947 19.8516 12.8921 26.4595C12.9998 28.2498 13.126 30.0553 13.2715 31.8087C12.9121 31.6659 12.538 31.5372 12.1632 31.4397C11.8111 31.3482 11.0961 31.1835 10.2726 31.2656C8.25943 31.4662 6.94558 32.8437 6.27529 33.8333C5.50065 34.9768 5.01037 36.3887 4.79431 37.9502L4.39763 40.8172L7.00646 42.0705C11.8753 44.4095 15.1105 48.2587 16.7599 50.221C16.817 50.2889 16.8722 50.3546 16.9255 50.4179Z" stroke="#2400FD" stroke-width="7.93548"/>
<path d="M19.96 47.8615C18.3993 46.0089 14.6227 41.3275 8.72461 38.494C9.02724 36.3069 10.0034 35.2798 10.6662 35.2137C11.5868 35.122 15.9165 37.1449 20.3006 41.9516C23.0494 35.9504 27.1052 30.7486 28.3572 30.6238C29.2042 30.5393 30.323 32.4361 30.7794 33.2831C25.5929 39.0811 23.5843 44.6738 22.6852 46.8461C22.3793 47.5088 22.2504 47.7076 21.4035 47.792C20.9247 47.8398 20.3687 47.858 19.96 47.8615Z" fill="white"/>
<path d="M19.8884 8.02039C20.0701 16.5169 20.7501 33.4325 22.2726 41.8078C21.7044 42.0516 19.465 42.3709 18.6859 42.3885C17.0555 35.8408 16.1881 16.9904 16.4047 8.88832C17.2003 8.39951 19.0071 7.89115 19.8884 8.02039Z" fill="white"/>
</svg>
