<svg width="48" height="48" viewBox="0 0 48 48" fill="none" xmlns="http://www.w3.org/2000/svg">
<path d="M4 12.6553C4 11.0959 5.26414 9.83177 6.82353 9.83177H41.1765C42.7359 9.83177 44 11.0959 44 12.6553V43.8318H4V12.6553Z" fill="#2400FD"/>
<path d="M4 12.6553C4 11.0959 5.26414 9.83177 6.82353 9.83177H41.1765C42.7359 9.83177 44 11.0959 44 12.6553V15.8318H4V12.6553Z" fill="#FF3E37"/>
<path d="M15 9.83177C15 8.17492 13.6569 6.83177 12 6.83177C10.3431 6.83177 9 8.17492 9 9.83177C9 11.4886 10.3431 12.8318 12 12.8318" stroke="#140C78" stroke-width="2"/>
<path d="M23 9.83177C23 8.17492 21.6569 6.83177 20 6.83177C18.3431 6.83177 17 8.17492 17 9.83177C17 11.4886 18.3431 12.8318 20 12.8318" stroke="#140C78" stroke-width="2"/>
<path d="M31 9.83177C31 8.17492 29.6569 6.83177 28 6.83177C26.3431 6.83177 25 8.17492 25 9.83177C25 11.4886 26.3431 12.8318 28 12.8318" stroke="#140C78" stroke-width="2"/>
<path d="M39 9.83177C39 8.17492 37.6569 6.83177 36 6.83177C34.3431 6.83177 33 8.17492 33 9.83177C33 11.4886 34.3431 12.8318 36 12.8318" stroke="#140C78" stroke-width="2"/>
<path d="M15.9996 19.8318V39.8318M23.9996 19.8318V39.8318M10.5 26.4318H37.5M10.5 34.4318H37.5M31.9996 19.8318V39.8318" stroke="white" stroke-width="2"/>
</svg>
