<svg width="24" height="24" viewBox="0 0 24 24" fill="none" xmlns="http://www.w3.org/2000/svg">
<circle cx="12" cy="12" r="10" stroke="#2400FD" stroke-width="2"/>
<path d="M9.3 16.3354H9.5V20.7C9.5 21.418 10.082 22 10.8 22H12.45C13.168 22 13.75 21.418 13.75 20.7V16.3354H14.7C15.418 16.3354 16 15.7534 16 15.0354V13.1903C16 12.4723 15.418 11.8903 14.7 11.8903H13.75V11.4451H14.7C15.418 11.4451 16 10.8631 16 10.1451V8.3C16 7.58203 15.418 7 14.7 7H13.125C11.0485 7 9.5 8.80727 9.5 10.8527V11.8903H9.3C8.58203 11.8903 8 12.4723 8 13.1903V15.0354C8 15.7534 8.58203 16.3354 9.3 16.3354Z" stroke="#2400FD" stroke-width="2"/>
</svg>
