<svg width="390" height="230" viewBox="0 0 390 230" fill="none" xmlns="http://www.w3.org/2000/svg">
<path d="M0 230L223.093 8.99998L390 174.341L0 230Z" fill="#F7F7F8"/>
<path fill-rule="evenodd" clip-rule="evenodd" d="M219.66 188.082C219.66 178.616 225.712 170.417 233.516 165.061C251.363 152.809 263.068 132.26 263.068 108.977C263.068 71.4345 232.634 41 195.091 41C157.548 41 127.113 71.4345 127.113 108.977C127.113 132.023 138.581 152.39 156.121 164.683C163.783 170.053 169.701 178.183 169.701 187.539V192.516C169.701 205.181 179.968 215.448 192.633 215.448H196.728C209.393 215.448 219.66 205.181 219.66 192.516V188.082Z" fill="#FF3E37"/>
<mask id="mask0_108_154" style="mask-type:alpha" maskUnits="userSpaceOnUse" x="127" y="41" width="137" height="175">
<path fill-rule="evenodd" clip-rule="evenodd" d="M219.661 188.082C219.661 178.616 225.713 170.417 233.517 165.061C251.364 152.809 263.069 132.26 263.069 108.977C263.069 71.4345 232.635 41 195.092 41C157.549 41 127.114 71.4345 127.114 108.977C127.114 132.023 138.582 152.39 156.122 164.683C163.784 170.053 169.702 178.183 169.702 187.539V192.516C169.702 205.181 179.969 215.448 192.634 215.448H196.729C209.394 215.448 219.661 205.181 219.661 192.516V188.082Z" fill="#F3F3F3"/>
</mask>
<g mask="url(#mask0_108_154)">
<path d="M230.001 29.5C141.5 82 125.5 159 125.5 159C125.5 159 48.5911 -35.2014 230.001 29.5Z" fill="white" fill-opacity="0.1"/>
<path d="M186.308 222.801C229.5 124 279.5 88 279.5 88C279.5 88 367.717 287.502 186.308 222.801Z" fill="black" fill-opacity="0.1"/>
</g>
<rect x="174.615" y="216.267" width="38.4932" height="5.73303" fill="#1C079C"/>
<rect x="163.969" y="204.801" width="59.7873" height="12.2851" rx="6.14253" fill="#2400FD"/>
<rect x="163.969" y="192.516" width="59.7873" height="12.2851" rx="6.14253" fill="#2400FD"/>
<path d="M164.788 201.525H222.937C222.937 202.753 220.071 204.801 218.023 204.801H169.702C167.245 204.801 164.788 202.344 164.788 201.525Z" fill="#1C079C" fill-opacity="0.4"/>
<path d="M164.788 213.81H222.937C222.937 215.038 220.071 217.086 218.023 217.086H169.702C167.245 217.086 164.788 214.629 164.788 213.81Z" fill="#1C079C" fill-opacity="0.4"/>
<rect x="179.529" y="176.136" width="8.19005" height="16.3801" fill="white"/>
<rect x="200.824" y="176.136" width="8.19005" height="16.3801" fill="white"/>
<path d="M154.965 108.674L154.555 107.965L154.555 107.965L154.965 108.674ZM165.38 109.84L165.013 110.572L165.38 109.84ZM153.007 111.501L152.197 111.386L152.197 111.386L153.007 111.501ZM154.049 115.439L153.354 115.873L153.354 115.873L154.049 115.439ZM166.154 123.491L166.427 122.719L166.427 122.719L166.154 123.491ZM175.845 125.962L176.614 125.679L176.451 125.237L175.987 125.155L175.845 125.962ZM179.518 138.998L178.717 139.172L178.717 139.172L179.518 138.998ZM183.624 176.551L182.805 176.563L182.817 177.382L183.636 177.37L183.624 176.551ZM184.443 176.539L184.455 177.358L185.274 177.347L185.262 176.528L184.443 176.539ZM180.318 138.825L181.119 138.652L181.119 138.652L180.318 138.825ZM176.774 126.119L176.906 125.311L175.532 125.086L176.003 126.397L176.774 126.119ZM194.271 127.405V128.224H195.09V127.405H194.271ZM194.271 126.586H195.09V125.767H194.271V126.586ZM176.449 125.235L175.682 125.523L175.848 125.963L176.312 126.042L176.449 125.235ZM174.552 120.748L173.813 121.101L173.813 121.101L174.552 120.748ZM175.51 125.07L175.363 125.875L176.797 126.137L176.275 124.776L175.51 125.07ZM173.813 121.101L173.074 121.454L173.074 121.454L173.813 121.101ZM166.427 122.719L166.699 121.947L166.699 121.947L166.427 122.719ZM154.743 115.005L154.049 115.439L154.049 115.439L154.743 115.005ZM153.818 111.617L153.007 111.501L153.818 111.617ZM155.375 109.383L155.785 110.092L155.785 110.092L155.375 109.383ZM165.013 110.572L164.647 111.305L164.647 111.305L165.013 110.572ZM233.579 108.674L233.168 109.383L233.168 109.383L233.579 108.674ZM223.164 109.84L222.798 109.107L222.798 109.107L223.164 109.84ZM235.536 111.501L236.347 111.386L236.347 111.386L235.536 111.501ZM234.495 115.439L235.19 115.873L235.19 115.873L234.495 115.439ZM222.389 123.491L222.117 122.719L222.117 122.719L222.389 123.491ZM212.698 125.962L212.557 125.155L212.092 125.237L211.93 125.679L212.698 125.962ZM209.026 138.999L209.826 139.172L209.826 139.172L209.026 138.999ZM204.92 176.551L204.908 177.37L205.727 177.382L205.738 176.563L204.92 176.551ZM204.101 176.539L203.282 176.528L203.27 177.347L204.089 177.358L204.101 176.539ZM208.225 138.825L207.425 138.652L207.425 138.652L208.225 138.825ZM211.77 126.119L212.54 126.397L213.012 125.086L211.637 125.311L211.77 126.119ZM194.272 127.405H193.453V128.224H194.272V127.405ZM194.272 126.586V125.767H193.453V126.586H194.272ZM212.095 125.235L212.232 126.042L212.696 125.963L212.862 125.523L212.095 125.235ZM213.992 120.748L214.731 121.101L214.731 121.101L213.992 120.748ZM213.034 125.07L212.269 124.776L211.746 126.137L213.18 125.875L213.034 125.07ZM214.731 121.101L215.47 121.454L215.47 121.454L214.731 121.101ZM222.117 122.719L222.389 123.491L222.389 123.491L222.117 122.719ZM233.801 115.005L234.495 115.439L234.495 115.439L233.801 115.005ZM234.725 111.617L233.915 111.733L233.915 111.733L234.725 111.617ZM233.168 109.383L232.758 110.092L232.758 110.092L233.168 109.383ZM223.53 110.572L223.897 111.305L223.897 111.305L223.53 110.572ZM155.375 109.383C157.187 108.334 160.556 108.343 165.013 110.572L165.746 109.107C161.099 106.784 157.077 106.505 154.555 107.965L155.375 109.383ZM153.818 111.617C153.952 110.677 154.482 109.9 155.375 109.383L154.555 107.965C153.253 108.718 152.406 109.919 152.197 111.386L153.818 111.617ZM154.743 115.005C153.947 113.731 153.683 112.568 153.818 111.617L152.197 111.386C151.992 112.821 152.415 114.371 153.354 115.873L154.743 115.005ZM166.427 122.719C160.016 120.457 156.338 117.557 154.743 115.005L153.354 115.873C155.224 118.865 159.292 121.938 165.882 124.264L166.427 122.719ZM175.987 125.155C172.293 124.506 169.121 123.67 166.427 122.719L165.882 124.264C168.671 125.248 171.932 126.105 175.703 126.768L175.987 125.155ZM180.318 138.825C179.312 134.17 178.089 129.692 176.614 125.679L175.076 126.244C176.518 130.167 177.722 134.568 178.717 139.172L180.318 138.825ZM184.443 176.539C184.306 166.966 183.199 152.154 180.318 138.825L178.717 139.172C181.569 152.366 182.67 167.064 182.805 176.563L184.443 176.539ZM184.431 175.72L183.612 175.732L183.636 177.37L184.455 177.358L184.431 175.72ZM179.518 138.998C182.384 152.26 183.488 167.015 183.624 176.551L185.262 176.528C185.125 166.916 184.014 152.049 181.119 138.652L179.518 138.998ZM176.003 126.397C177.393 130.256 178.555 134.542 179.518 138.998L181.119 138.652C180.145 134.145 178.965 129.787 177.545 125.842L176.003 126.397ZM194.271 126.586C187.548 126.586 181.791 126.11 176.906 125.311L176.642 126.927C181.625 127.742 187.472 128.224 194.271 128.224V126.586ZM193.452 126.586V127.405H195.09V126.586H193.452ZM176.312 126.042C181.343 126.895 187.296 127.405 194.271 127.405V125.767C187.374 125.767 181.514 125.263 176.586 124.427L176.312 126.042ZM173.813 121.101C174.475 122.487 175.098 123.966 175.682 125.523L177.216 124.947C176.617 123.352 175.976 121.829 175.291 120.395L173.813 121.101ZM165.013 110.572C168.495 112.313 171.407 116.066 173.813 121.101L175.291 120.395C172.828 115.242 169.715 111.091 165.746 109.107L165.013 110.572ZM176.275 124.776C175.734 123.369 175.161 122.021 174.552 120.748L173.074 121.454C173.662 122.684 174.219 123.991 174.745 125.363L176.275 124.776ZM166.154 123.491C168.779 124.417 171.837 125.232 175.363 125.875L175.657 124.264C172.205 123.634 169.233 122.841 166.699 121.947L166.154 123.491ZM154.049 115.439C155.781 118.211 159.654 121.198 166.154 123.491L166.699 121.947C160.378 119.716 156.895 116.903 155.438 114.571L154.049 115.439ZM153.007 111.501C152.838 112.694 153.181 114.051 154.049 115.439L155.438 114.571C154.713 113.412 154.528 112.442 154.629 111.733L153.007 111.501ZM154.965 108.674C153.868 109.309 153.179 110.298 153.007 111.501L154.629 111.733C154.726 111.056 155.097 110.49 155.785 110.092L154.965 108.674ZM165.38 109.84C160.827 107.563 157.132 107.42 154.965 108.674L155.785 110.092C157.243 109.248 160.286 109.124 164.647 111.305L165.38 109.84ZM174.552 120.748C172.118 115.654 169.105 111.702 165.38 109.84L164.647 111.305C167.886 112.924 170.696 116.479 173.074 121.454L174.552 120.748ZM233.989 107.965C231.467 106.505 227.444 106.784 222.798 109.107L223.53 110.572C227.988 108.343 231.356 108.334 233.168 109.383L233.989 107.965ZM236.347 111.386C236.138 109.919 235.29 108.718 233.989 107.965L233.168 109.383C234.061 109.9 234.591 110.677 234.725 111.617L236.347 111.386ZM235.19 115.873C236.128 114.371 236.551 112.821 236.347 111.386L234.725 111.617C234.861 112.568 234.597 113.731 233.801 115.005L235.19 115.873ZM222.662 124.264C229.252 121.939 233.32 118.865 235.19 115.873L233.801 115.005C232.206 117.557 228.528 120.457 222.117 122.719L222.662 124.264ZM212.84 126.768C216.612 126.105 219.872 125.248 222.662 124.264L222.117 122.719C219.422 123.67 216.25 124.506 212.557 125.155L212.84 126.768ZM209.826 139.172C210.821 134.568 212.025 130.167 213.467 126.244L211.93 125.679C210.455 129.692 209.231 134.17 208.225 138.825L209.826 139.172ZM205.738 176.563C205.874 167.064 206.975 152.366 209.826 139.172L208.225 138.825C205.345 152.154 204.237 166.966 204.101 176.539L205.738 176.563ZM204.089 177.358L204.908 177.37L204.931 175.732L204.112 175.72L204.089 177.358ZM207.425 138.652C204.53 152.049 203.419 166.916 203.282 176.528L204.92 176.551C205.056 167.015 206.16 152.26 209.026 138.999L207.425 138.652ZM210.999 125.842C209.579 129.787 208.399 134.145 207.425 138.652L209.026 138.999C209.989 134.542 211.151 130.256 212.54 126.397L210.999 125.842ZM194.272 128.224C201.071 128.224 206.918 127.742 211.902 126.927L211.637 125.311C206.753 126.11 200.995 126.586 194.272 126.586V128.224ZM193.453 126.586V127.405H195.092V126.586H193.453ZM211.958 124.427C207.03 125.263 201.169 125.767 194.272 125.767V127.405C201.248 127.405 207.201 126.895 212.232 126.042L211.958 124.427ZM213.253 120.395C212.567 121.829 211.927 123.352 211.328 124.947L212.862 125.523C213.446 123.966 214.069 122.487 214.731 121.101L213.253 120.395ZM222.798 109.107C218.829 111.091 215.715 115.242 213.253 120.395L214.731 121.101C217.137 116.066 220.048 112.313 223.53 110.572L222.798 109.107ZM213.798 125.363C214.325 123.991 214.882 122.684 215.47 121.454L213.992 120.748C213.383 122.021 212.809 123.369 212.269 124.776L213.798 125.363ZM221.844 121.947C219.311 122.841 216.338 123.634 212.887 124.264L213.18 125.875C216.707 125.232 219.765 124.417 222.389 123.491L221.844 121.947ZM233.106 114.571C231.649 116.903 228.166 119.716 221.844 121.947L222.389 123.491C228.89 121.198 232.763 118.211 234.495 115.439L233.106 114.571ZM233.915 111.733C234.016 112.442 233.831 113.412 233.106 114.571L234.495 115.439C235.363 114.051 235.706 112.694 235.536 111.501L233.915 111.733ZM232.758 110.092C233.447 110.49 233.818 111.056 233.915 111.733L235.536 111.501C235.365 110.298 234.676 109.309 233.579 108.674L232.758 110.092ZM223.897 111.305C228.258 109.124 231.3 109.248 232.758 110.092L233.579 108.674C231.412 107.42 227.716 107.563 223.164 109.84L223.897 111.305ZM215.47 121.454C217.848 116.479 220.658 112.924 223.897 111.305L223.164 109.84C219.439 111.702 216.426 115.654 213.992 120.748L215.47 121.454Z" fill="white"/>
<path d="M142.048 31.4652L141.937 0.630791L118.869 0.437831L142.048 31.4652Z" fill="#2400FD"/>
<path d="M280.858 66.1726L301.917 43.6494L318.955 59.2013L280.858 66.1726Z" fill="#2400FD"/>
<path d="M126.006 66.4385L102.832 57.8733L96.2167 75.1329L126.006 66.4385Z" fill="#2400FD"/>
<path d="M281 90.1347L296.377 89.2302L297.192 100.725L281 90.1347Z" fill="#2400FD"/>
</svg>
