<svg width="332" height="239" viewBox="0 0 332 239" fill="none" xmlns="http://www.w3.org/2000/svg">
<path d="M0 50L189.915 239L332 97.6001L0 50Z" fill="#F7F7F8"/>
<rect x="124.546" y="224.916" width="83.6555" height="6.08403" fill="#D70606"/>
<rect x="151.925" y="185.37" width="33.4622" height="39.5462" fill="#FF3E37"/>
<rect x="124.546" y="185.37" width="60.8403" height="6.08403" fill="#2400FD"/>
<path d="M186.148 200.58C195.426 200.58 204.42 197.379 211.612 191.517C218.805 185.655 223.754 177.491 225.626 168.403C227.497 159.316 226.176 149.861 221.886 141.634C217.595 133.407 210.597 126.912 202.074 123.246L198.367 131.863C204.907 134.676 210.276 139.659 213.569 145.972C216.861 152.284 217.874 159.538 216.438 166.511C215.002 173.484 211.205 179.748 205.686 184.246C200.168 188.743 193.267 191.2 186.148 191.2L186.148 200.58Z" fill="#FF3E37"/>
<path d="M139.756 151.281L170.267 104.756C180.196 107.21 188.54 114.3 191.47 117.538L159.924 165.597L139.756 151.281Z" fill="#1C079C"/>
<path d="M221.891 62.7944L204.84 89.5462C199.291 88.1351 194.629 84.0586 192.991 82.1968L210.62 54.563L221.891 62.7944Z" fill="#FF3E37"/>
<path opacity="0.16" d="M221.891 62.7943L204.84 89.5462C199.291 88.1351 202.234 90.1427 200.597 88.2808L218.088 59.8864L221.891 62.7943Z" fill="black"/>
<path d="M162.571 117.461L193.98 69.7731C204.201 72.2885 212.79 79.5553 215.807 82.8743L183.333 132.134L162.571 117.461Z" fill="#1C079C"/>
<path d="M140.517 142.021L185.386 72.8151C199.988 76.4655 212.257 87.0112 216.567 91.8277L170.176 163.315L140.517 142.021Z" fill="#2400FD"/>
<path d="M160.29 155.71L206.681 83.4622C211.244 86.5042 212.258 87.0112 216.567 91.8277L170.177 163.315L160.29 155.71Z" fill="black" fill-opacity="0.1"/>
<path d="M210.483 54.563L211.244 50L226.454 59.8866L221.891 62.9286L210.483 54.563Z" fill="#9B0C07" fill-opacity="0.96"/>
<mask id="mask0_108_182" style="mask-type:alpha" maskUnits="userSpaceOnUse" x="186" y="123" width="41" height="78">
<path d="M186.148 200.58C195.426 200.58 204.42 197.379 211.612 191.517C218.805 185.655 223.754 177.491 225.626 168.403C227.497 159.316 226.176 149.861 221.886 141.634C217.595 133.407 210.597 126.912 202.074 123.246L198.367 131.863C204.907 134.676 210.276 139.659 213.569 145.972C216.861 152.284 217.874 159.538 216.438 166.511C215.002 173.484 211.205 179.748 205.686 184.246C200.168 188.743 193.267 191.2 186.148 191.2L186.148 200.58Z" fill="#FF3E37"/>
</mask>
<g mask="url(#mask0_108_182)">
<path d="M211.244 124.529C211.244 131.25 202.754 151.147 196.034 151.147C189.314 151.147 186.908 131.25 186.908 124.529C186.908 117.809 192.356 112.361 199.076 112.361C205.797 112.361 211.244 117.809 211.244 124.529Z" fill="black" fill-opacity="0.2"/>
</g>
<circle cx="183.866" cy="196.017" r="7.60504" fill="white"/>
<circle cx="196.033" cy="121.487" r="12.1681" fill="white"/>
<path d="M128.917 161.55L120.993 144.493L108.162 150.268L128.917 161.55Z" fill="#2400FD"/>
<path d="M128.323 169.937L113.298 171.1L114.033 182.351L128.323 169.937Z" fill="#2400FD"/>
<path d="M225 45.7394L235.592 35.0198L227.668 27L225 45.7394Z" fill="#2400FD"/>
<path d="M249.938 0.0422303C249.488 0.0156195 249.04 1.5299e-05 248.598 1.5299e-05C242.409 -0.00732561 236.803 2.62714 231.92 7.85111C227.478 12.5961 225.985 16.4179 226 21.029C226.007 23.4955 226.445 26.1905 227.093 29.3765C228.312 35.3648 231.865 41.1439 236.846 45.2374C240.657 48.3683 244.908 49.9705 249.39 49.9998C251.711 50.0145 254.093 49.6089 256.51 48.7757C264.309 46.0844 271.771 38.3773 274.652 30.0353C275.564 27.3963 276.007 24.8251 276 22.3806C275.977 16.4042 273.245 11.1665 268.03 7.42167C261.701 2.8749 255.615 0.393676 249.938 0.0422303Z" fill="#2400FD"/>
<path d="M241.035 25.0812H239.32L239.317 25.1307C239.302 25.4647 239.105 28.3809 236.495 28.3809C234.162 28.3809 232.977 26.2906 232.976 22.1677C232.977 18.0458 234.162 15.9546 236.495 15.9546C239.149 15.9546 239.31 19.0708 239.317 19.2048L239.32 19.2543H241.035C241.193 19.2543 241.346 19.191 241.457 19.0772C241.563 18.968 241.618 18.8276 241.61 18.6808C241.575 17.8724 241.161 13.8367 236.472 13.8367C232.683 13.8367 230.68 16.7171 230.68 22.1641C230.68 27.6211 232.682 30.5088 236.472 30.5088C240.983 30.5088 241.543 26.8228 241.61 25.6941C241.62 25.5381 241.568 25.3867 241.46 25.2739C241.349 25.1454 241.194 25.0812 241.035 25.0812Z" fill="white"/>
<path d="M267.682 21.173L266.208 20.5307C264.786 19.9076 264.284 19.3001 264.284 18.21C264.284 16.7886 265.322 15.8352 266.868 15.8352C267.783 15.8352 268.532 16.0224 269.45 16.9547L269.499 17.007L270.287 16.2858C270.745 15.8628 270.611 15.4792 270.421 15.2342C269.652 14.3276 268.419 13.8312 266.944 13.8312C264.102 13.8312 262.037 15.6847 262.037 18.2403C262.037 20.7518 263.62 21.8025 265.33 22.5641L266.837 23.2358C268.353 23.9148 269.074 24.4938 269.074 25.9519C269.074 27.9395 267.278 28.4708 266.217 28.4708C265.305 28.4708 264.286 28.2753 263.038 26.8613L262.989 26.8044L262.167 27.5256C261.744 27.8963 261.743 28.2157 262.153 28.7442C263.281 30.1977 264.94 30.5015 266.132 30.5015C268.707 30.5015 271.318 28.9195 271.318 25.8941C271.319 23.2743 269.865 22.1126 267.682 21.173Z" fill="white"/>
<path d="M253.118 18.5973C253.118 16.0243 251.031 13.8441 248.458 13.8441C247.247 13.8441 246.145 14.3065 245.316 15.0626V14.1781H243.767C243.3 14.1781 243.122 14.4818 243.122 14.8332V29.8509C243.122 30.273 243.379 30.4978 243.76 30.4978H245.31V18.6881C245.31 17.1365 246.568 15.8775 248.12 15.8775C249.673 15.8775 250.931 17.1355 250.931 18.6881V30.5006H252.471C252.898 30.5006 253.119 30.2629 253.119 29.8555C253.118 29.8564 253.118 18.6129 253.118 18.5973Z" fill="white"/>
<path d="M262.006 14.9672C262.088 14.8654 262.138 14.7397 262.138 14.6011C262.138 14.3423 261.97 14.1267 261.737 14.0469C261.29 13.8964 260.81 13.8147 260.313 13.8147C259.102 13.8147 258 14.2772 257.171 15.0333V14.1487H255.622C255.155 14.1487 254.977 14.4524 254.977 14.8039V29.8188C254.977 30.2409 255.236 30.4657 255.617 30.4657H257.166V18.6569C257.166 17.1043 258.424 15.8463 259.977 15.8463C260.382 15.8463 260.768 15.9362 261.116 16.0895L262.011 14.9645L262.006 14.9672Z" fill="white"/>
</svg>
