<svg width="242" height="105" viewBox="0 0 242 105" fill="none" xmlns="http://www.w3.org/2000/svg">
<path fill-rule="evenodd" clip-rule="evenodd" d="M80.1097 68.9598L80.1097 103.859H91.0365V57.9314L80.1097 68.9598ZM0.145584 84.7573V103.859H11.569V96.0837L0.145584 84.7573Z" fill="#FF3E37"/>
<path fill-rule="evenodd" clip-rule="evenodd" d="M91.2075 29.1158V45.2432L32.1352 104.316L8.12603e-07 72.1803L0 56.053L32.1352 88.1882L91.2075 29.1158Z" fill="white"/>
<path fill-rule="evenodd" clip-rule="evenodd" d="M91.2075 0V16.1274L32.135 75.1999L8.12602e-07 43.0648L0 26.9375L32.135 59.0725L91.2075 0Z" fill="white"/>
<mask id="path-4-outside-1_88_2331" maskUnits="userSpaceOnUse" x="111.425" y="27.7465" width="130" height="77" fill="black">
<rect fill="white" x="111.425" y="27.7465" width="130" height="77"/>
<path d="M117.941 63.251V38.6118L127.684 63.251H132.325L141.923 38.6118V63.251H147.195V28.7465H140.683L130.09 55.7197L119.18 28.7465H112.425V63.251H117.941Z"/>
<path d="M159.237 35.0747V28.7465H153.309V35.0747H159.237ZM159.067 63.251V38.6118H153.503V63.251H159.067Z"/>
<path d="M175.119 63.8044C178.035 63.8044 180.44 63.0344 182.36 61.4704C184.255 59.9305 185.397 57.9333 185.81 55.455H180.853C179.954 57.9815 178.035 59.2567 175.119 59.2567C173.127 59.2567 171.547 58.6793 170.381 57.5002C169.19 56.3453 168.607 54.7572 168.607 52.7601V52.7119H186.223C186.515 48.5493 185.64 45.1084 183.623 42.3895C181.606 39.6705 178.715 38.323 174.973 38.323C171.45 38.323 168.607 39.5021 166.42 41.8601C164.209 44.2182 163.116 47.2981 163.116 51.1239C163.116 55.07 164.209 58.174 166.396 60.4117C168.559 62.6735 171.474 63.8044 175.119 63.8044ZM168.753 48.1162C168.85 46.5762 169.482 45.3009 170.624 44.3144C171.766 43.3279 173.151 42.8466 174.827 42.8466C176.48 42.8466 177.84 43.3279 178.934 44.3144C180.003 45.3009 180.562 46.5762 180.634 48.1162H168.753Z"/>
<path d="M199.577 63.9006C201.375 63.9006 202.906 63.5157 204.17 62.6976C205.409 61.9035 206.381 61.0614 207.037 60.147V63.251H212.309V38.6118H207.037V51.0276C207.037 53.506 206.429 55.479 205.214 56.9709C204 58.4627 202.542 59.2086 200.817 59.2086C197.828 59.2086 195.884 57.2837 195.884 53.1451V38.6118H190.174V53.7466C190.174 56.8987 191.122 59.4974 192.458 60.9411C193.114 61.6629 193.892 62.2404 194.791 62.6976C196.54 63.636 198.047 63.9006 199.577 63.9006Z"/>
<path d="M221.752 63.251L227.753 55.07L233.731 63.251H240L230.791 50.9314L240 38.6118H233.731L227.802 46.7928L221.752 38.6118H215.459L224.716 50.9314L215.459 63.251H221.752Z"/>
<path d="M130.898 103.143L143.946 68.6385H138.358L128.371 95.8523L118.361 68.6385H112.724L125.771 103.143H130.898Z"/>
<path d="M155.405 103.384C158.783 103.384 161.65 102.205 163.958 99.8225C166.266 97.4644 167.408 94.4567 167.408 90.8234C167.408 87.142 166.266 84.1102 163.958 81.7281C161.65 79.346 158.783 78.167 155.405 78.167C151.979 78.167 149.137 79.346 146.828 81.7281C144.52 84.1102 143.354 87.142 143.354 90.8234C143.354 94.4567 144.52 97.4644 146.828 99.8225C149.137 102.205 151.979 103.384 155.405 103.384ZM155.357 98.4991C153.267 98.4991 151.639 97.7772 150.473 96.3335C149.282 94.8898 148.699 93.0612 148.699 90.8234C148.699 88.5616 149.307 86.7089 150.497 85.2411C151.688 83.7974 153.316 83.0755 155.405 83.0755C157.519 83.0755 159.196 83.7974 160.386 85.2411C161.577 86.7089 162.184 88.5857 162.184 90.8715C162.184 93.1093 161.577 94.938 160.362 96.3576C159.147 97.7772 157.471 98.4991 155.357 98.4991Z"/>
<path d="M183.217 103.143L183.266 98.4991H179.888C178.698 98.4991 177.896 98.2585 177.483 97.8013C177.07 97.3441 176.851 96.502 176.851 95.2508V82.9312H183.217V78.5038H176.851V70.6116H171.676V78.5038H167.812V82.9312H171.676V96.5982C171.676 98.4991 172.307 100.063 173.595 101.29C174.883 102.517 176.511 103.143 178.503 103.143H183.217Z"/>
<path d="M196.158 103.696C199.074 103.696 201.48 102.926 203.399 101.362C205.294 99.8225 206.436 97.8254 206.849 95.347H201.893C200.994 97.8735 199.074 99.1488 196.158 99.1488C194.166 99.1488 192.587 98.5713 191.42 97.3923C190.23 96.2373 189.647 94.6492 189.647 92.6521V92.604H207.262C207.554 88.4413 206.679 85.0005 204.663 82.2815C202.646 79.5625 199.754 78.2151 196.013 78.2151C192.489 78.2151 189.647 79.3941 187.46 81.7521C185.249 84.1102 184.155 87.1901 184.155 91.0159C184.155 94.962 185.249 98.066 187.436 100.304C189.598 102.566 192.514 103.696 196.158 103.696ZM189.792 88.0082C189.89 86.4682 190.521 85.193 191.663 84.2064C192.805 83.2199 194.19 82.7387 195.867 82.7387C197.519 82.7387 198.88 83.2199 199.973 84.2064C201.042 85.193 201.601 86.4682 201.674 88.0082H189.792Z"/>
<path d="M216.583 103.143V90.679C216.583 85.8908 219.013 83.5086 223.848 83.5808H224.699V78.1188H223.557C222.123 78.1188 220.884 78.3594 219.791 78.8166C218.697 79.2978 217.944 79.755 217.531 80.1641C217.118 80.5972 216.802 81.0544 216.583 81.5115V78.5038H211.457V103.143H216.583Z"/>
</mask>
<path d="M117.941 63.251V38.6118L127.684 63.251H132.325L141.923 38.6118V63.251H147.195V28.7465H140.683L130.09 55.7197L119.18 28.7465H112.425V63.251H117.941Z" fill="white"/>
<path d="M159.237 35.0747V28.7465H153.309V35.0747H159.237ZM159.067 63.251V38.6118H153.503V63.251H159.067Z" fill="white"/>
<path d="M175.119 63.8044C178.035 63.8044 180.44 63.0344 182.36 61.4704C184.255 59.9305 185.397 57.9333 185.81 55.455H180.853C179.954 57.9815 178.035 59.2567 175.119 59.2567C173.127 59.2567 171.547 58.6793 170.381 57.5002C169.19 56.3453 168.607 54.7572 168.607 52.7601V52.7119H186.223C186.515 48.5493 185.64 45.1084 183.623 42.3895C181.606 39.6705 178.715 38.323 174.973 38.323C171.45 38.323 168.607 39.5021 166.42 41.8601C164.209 44.2182 163.116 47.2981 163.116 51.1239C163.116 55.07 164.209 58.174 166.396 60.4117C168.559 62.6735 171.474 63.8044 175.119 63.8044ZM168.753 48.1162C168.85 46.5762 169.482 45.3009 170.624 44.3144C171.766 43.3279 173.151 42.8466 174.827 42.8466C176.48 42.8466 177.84 43.3279 178.934 44.3144C180.003 45.3009 180.562 46.5762 180.634 48.1162H168.753Z" fill="white"/>
<path d="M199.577 63.9006C201.375 63.9006 202.906 63.5157 204.17 62.6976C205.409 61.9035 206.381 61.0614 207.037 60.147V63.251H212.309V38.6118H207.037V51.0276C207.037 53.506 206.429 55.479 205.214 56.9709C204 58.4627 202.542 59.2086 200.817 59.2086C197.828 59.2086 195.884 57.2837 195.884 53.1451V38.6118H190.174V53.7466C190.174 56.8987 191.122 59.4974 192.458 60.9411C193.114 61.6629 193.892 62.2404 194.791 62.6976C196.54 63.636 198.047 63.9006 199.577 63.9006Z" fill="white"/>
<path d="M221.752 63.251L227.753 55.07L233.731 63.251H240L230.791 50.9314L240 38.6118H233.731L227.802 46.7928L221.752 38.6118H215.459L224.716 50.9314L215.459 63.251H221.752Z" fill="white"/>
<path d="M130.898 103.143L143.946 68.6385H138.358L128.371 95.8523L118.361 68.6385H112.724L125.771 103.143H130.898Z" fill="white"/>
<path d="M155.405 103.384C158.783 103.384 161.65 102.205 163.958 99.8225C166.266 97.4644 167.408 94.4567 167.408 90.8234C167.408 87.142 166.266 84.1102 163.958 81.7281C161.65 79.346 158.783 78.167 155.405 78.167C151.979 78.167 149.137 79.346 146.828 81.7281C144.52 84.1102 143.354 87.142 143.354 90.8234C143.354 94.4567 144.52 97.4644 146.828 99.8225C149.137 102.205 151.979 103.384 155.405 103.384ZM155.357 98.4991C153.267 98.4991 151.639 97.7772 150.473 96.3335C149.282 94.8898 148.699 93.0612 148.699 90.8234C148.699 88.5616 149.307 86.7089 150.497 85.2411C151.688 83.7974 153.316 83.0755 155.405 83.0755C157.519 83.0755 159.196 83.7974 160.386 85.2411C161.577 86.7089 162.184 88.5857 162.184 90.8715C162.184 93.1093 161.577 94.938 160.362 96.3576C159.147 97.7772 157.471 98.4991 155.357 98.4991Z" fill="white"/>
<path d="M183.217 103.143L183.266 98.4991H179.888C178.698 98.4991 177.896 98.2585 177.483 97.8013C177.07 97.3441 176.851 96.502 176.851 95.2508V82.9312H183.217V78.5038H176.851V70.6116H171.676V78.5038H167.812V82.9312H171.676V96.5982C171.676 98.4991 172.307 100.063 173.595 101.29C174.883 102.517 176.511 103.143 178.503 103.143H183.217Z" fill="white"/>
<path d="M196.158 103.696C199.074 103.696 201.48 102.926 203.399 101.362C205.294 99.8225 206.436 97.8254 206.849 95.347H201.893C200.994 97.8735 199.074 99.1488 196.158 99.1488C194.166 99.1488 192.587 98.5713 191.42 97.3923C190.23 96.2373 189.647 94.6492 189.647 92.6521V92.604H207.262C207.554 88.4413 206.679 85.0005 204.663 82.2815C202.646 79.5625 199.754 78.2151 196.013 78.2151C192.489 78.2151 189.647 79.3941 187.46 81.7521C185.249 84.1102 184.155 87.1901 184.155 91.0159C184.155 94.962 185.249 98.066 187.436 100.304C189.598 102.566 192.514 103.696 196.158 103.696ZM189.792 88.0082C189.89 86.4682 190.521 85.193 191.663 84.2064C192.805 83.2199 194.19 82.7387 195.867 82.7387C197.519 82.7387 198.88 83.2199 199.973 84.2064C201.042 85.193 201.601 86.4682 201.674 88.0082H189.792Z" fill="white"/>
<path d="M216.583 103.143V90.679C216.583 85.8908 219.013 83.5086 223.848 83.5808H224.699V78.1188H223.557C222.123 78.1188 220.884 78.3594 219.791 78.8166C218.697 79.2978 217.944 79.755 217.531 80.1641C217.118 80.5972 216.802 81.0544 216.583 81.5115V78.5038H211.457V103.143H216.583Z" fill="white"/>
<path d="M117.941 63.251V38.6118L127.684 63.251H132.325L141.923 38.6118V63.251H147.195V28.7465H140.683L130.09 55.7197L119.18 28.7465H112.425V63.251H117.941Z" stroke="white" stroke-width="1.4" mask="url(#path-4-outside-1_88_2331)"/>
<path d="M159.237 35.0747V28.7465H153.309V35.0747H159.237ZM159.067 63.251V38.6118H153.503V63.251H159.067Z" stroke="white" stroke-width="1.4" mask="url(#path-4-outside-1_88_2331)"/>
<path d="M175.119 63.8044C178.035 63.8044 180.44 63.0344 182.36 61.4704C184.255 59.9305 185.397 57.9333 185.81 55.455H180.853C179.954 57.9815 178.035 59.2567 175.119 59.2567C173.127 59.2567 171.547 58.6793 170.381 57.5002C169.19 56.3453 168.607 54.7572 168.607 52.7601V52.7119H186.223C186.515 48.5493 185.64 45.1084 183.623 42.3895C181.606 39.6705 178.715 38.323 174.973 38.323C171.45 38.323 168.607 39.5021 166.42 41.8601C164.209 44.2182 163.116 47.2981 163.116 51.1239C163.116 55.07 164.209 58.174 166.396 60.4117C168.559 62.6735 171.474 63.8044 175.119 63.8044ZM168.753 48.1162C168.85 46.5762 169.482 45.3009 170.624 44.3144C171.766 43.3279 173.151 42.8466 174.827 42.8466C176.48 42.8466 177.84 43.3279 178.934 44.3144C180.003 45.3009 180.562 46.5762 180.634 48.1162H168.753Z" stroke="white" stroke-width="1.4" mask="url(#path-4-outside-1_88_2331)"/>
<path d="M199.577 63.9006C201.375 63.9006 202.906 63.5157 204.17 62.6976C205.409 61.9035 206.381 61.0614 207.037 60.147V63.251H212.309V38.6118H207.037V51.0276C207.037 53.506 206.429 55.479 205.214 56.9709C204 58.4627 202.542 59.2086 200.817 59.2086C197.828 59.2086 195.884 57.2837 195.884 53.1451V38.6118H190.174V53.7466C190.174 56.8987 191.122 59.4974 192.458 60.9411C193.114 61.6629 193.892 62.2404 194.791 62.6976C196.54 63.636 198.047 63.9006 199.577 63.9006Z" stroke="white" stroke-width="1.4" mask="url(#path-4-outside-1_88_2331)"/>
<path d="M221.752 63.251L227.753 55.07L233.731 63.251H240L230.791 50.9314L240 38.6118H233.731L227.802 46.7928L221.752 38.6118H215.459L224.716 50.9314L215.459 63.251H221.752Z" stroke="white" stroke-width="1.4" mask="url(#path-4-outside-1_88_2331)"/>
<path d="M130.898 103.143L143.946 68.6385H138.358L128.371 95.8523L118.361 68.6385H112.724L125.771 103.143H130.898Z" stroke="white" stroke-width="1.4" mask="url(#path-4-outside-1_88_2331)"/>
<path d="M155.405 103.384C158.783 103.384 161.65 102.205 163.958 99.8225C166.266 97.4644 167.408 94.4567 167.408 90.8234C167.408 87.142 166.266 84.1102 163.958 81.7281C161.65 79.346 158.783 78.167 155.405 78.167C151.979 78.167 149.137 79.346 146.828 81.7281C144.52 84.1102 143.354 87.142 143.354 90.8234C143.354 94.4567 144.52 97.4644 146.828 99.8225C149.137 102.205 151.979 103.384 155.405 103.384ZM155.357 98.4991C153.267 98.4991 151.639 97.7772 150.473 96.3335C149.282 94.8898 148.699 93.0612 148.699 90.8234C148.699 88.5616 149.307 86.7089 150.497 85.2411C151.688 83.7974 153.316 83.0755 155.405 83.0755C157.519 83.0755 159.196 83.7974 160.386 85.2411C161.577 86.7089 162.184 88.5857 162.184 90.8715C162.184 93.1093 161.577 94.938 160.362 96.3576C159.147 97.7772 157.471 98.4991 155.357 98.4991Z" stroke="white" stroke-width="1.4" mask="url(#path-4-outside-1_88_2331)"/>
<path d="M183.217 103.143L183.266 98.4991H179.888C178.698 98.4991 177.896 98.2585 177.483 97.8013C177.07 97.3441 176.851 96.502 176.851 95.2508V82.9312H183.217V78.5038H176.851V70.6116H171.676V78.5038H167.812V82.9312H171.676V96.5982C171.676 98.4991 172.307 100.063 173.595 101.29C174.883 102.517 176.511 103.143 178.503 103.143H183.217Z" stroke="white" stroke-width="1.4" mask="url(#path-4-outside-1_88_2331)"/>
<path d="M196.158 103.696C199.074 103.696 201.48 102.926 203.399 101.362C205.294 99.8225 206.436 97.8254 206.849 95.347H201.893C200.994 97.8735 199.074 99.1488 196.158 99.1488C194.166 99.1488 192.587 98.5713 191.42 97.3923C190.23 96.2373 189.647 94.6492 189.647 92.6521V92.604H207.262C207.554 88.4413 206.679 85.0005 204.663 82.2815C202.646 79.5625 199.754 78.2151 196.013 78.2151C192.489 78.2151 189.647 79.3941 187.46 81.7521C185.249 84.1102 184.155 87.1901 184.155 91.0159C184.155 94.962 185.249 98.066 187.436 100.304C189.598 102.566 192.514 103.696 196.158 103.696ZM189.792 88.0082C189.89 86.4682 190.521 85.193 191.663 84.2064C192.805 83.2199 194.19 82.7387 195.867 82.7387C197.519 82.7387 198.88 83.2199 199.973 84.2064C201.042 85.193 201.601 86.4682 201.674 88.0082H189.792Z" stroke="white" stroke-width="1.4" mask="url(#path-4-outside-1_88_2331)"/>
<path d="M216.583 103.143V90.679C216.583 85.8908 219.013 83.5086 223.848 83.5808H224.699V78.1188H223.557C222.123 78.1188 220.884 78.3594 219.791 78.8166C218.697 79.2978 217.944 79.755 217.531 80.1641C217.118 80.5972 216.802 81.0544 216.583 81.5115V78.5038H211.457V103.143H216.583Z" stroke="white" stroke-width="1.4" mask="url(#path-4-outside-1_88_2331)"/>
</svg>
