<svg width="978" height="263" viewBox="0 0 978 263" fill="none" xmlns="http://www.w3.org/2000/svg">
<g filter="url(#filter0_b_131_264)">
<g clip-path="url(#clip0_131_264)">
<rect x="9.91943" y="184.677" width="176.349" height="88.1747" transform="rotate(15 9.91943 184.677)" fill="#FF3E37"/>
<rect x="20.6597" y="144.598" width="176.349" height="41.494" transform="rotate(15 20.6597 144.598)" fill="#2400FD"/>
<rect x="36.6699" y="164.997" width="134.855" height="10.3735" transform="rotate(15 36.6699 164.997)" fill="#140C78"/>
<rect x="73.5391" y="67.4818" width="114.108" height="114.108" transform="rotate(15 73.5391 67.4818)" fill="#FF3E37"/>
<rect opacity="0.2" x="49.3765" y="157.662" width="114.108" height="20.747" transform="rotate(15 49.3765 157.662)" fill="#1C079C"/>
<path d="M144.165 127.616L106.191 149.541L92.7136 126.198" stroke="white" stroke-width="10.3735"/>
<rect x="965.998" y="76.2397" width="176.349" height="88.1747" transform="rotate(-165 965.998 76.2397)" fill="#FF3E37"/>
<rect x="955.257" y="116.32" width="176.349" height="41.494" transform="rotate(-165 955.257 116.32)" fill="#2400FD"/>
<rect x="939.247" y="95.9204" width="134.855" height="10.3735" transform="rotate(-165 939.247 95.9204)" fill="#140C78"/>
<rect x="902.378" y="193.435" width="114.108" height="114.108" transform="rotate(-165 902.378 193.435)" fill="#FF3E37"/>
<rect opacity="0.2" x="926.541" y="103.255" width="114.108" height="20.747" transform="rotate(-165 926.541 103.255)" fill="#1C079C"/>
<path d="M831.752 133.301L869.726 111.377L883.203 134.72" stroke="white" stroke-width="10.3735"/>
</g>
<rect x="1" y="1" width="976" height="261" stroke="#FF3E37" stroke-width="2"/>
</g>
<defs>
<filter id="filter0_b_131_264" x="-20" y="-20" width="1018" height="303" filterUnits="userSpaceOnUse" color-interpolation-filters="sRGB">
<feFlood flood-opacity="0" result="BackgroundImageFix"/>
<feGaussianBlur in="BackgroundImage" stdDeviation="10"/>
<feComposite in2="SourceAlpha" operator="in" result="effect1_backgroundBlur_131_264"/>
<feBlend mode="normal" in="SourceGraphic" in2="effect1_backgroundBlur_131_264" result="shape"/>
</filter>
<clipPath id="clip0_131_264">
<rect width="978" height="263" fill="white"/>
</clipPath>
</defs>
</svg>
