<svg width="63" height="37" viewBox="0 0 63 37" fill="none" xmlns="http://www.w3.org/2000/svg">
<path d="M61.0448 18.3871C58.2432 20.7472 51.1641 26.4581 46.8793 35.3772C43.5718 34.9195 42.0187 33.4434 41.9188 32.4411C41.7801 31.049 44.8391 24.5016 52.1078 17.872C43.0328 13.7152 35.1667 7.58207 34.9779 5.68879C34.8502 4.40803 37.7185 2.71616 38.9994 2.02609C47.767 9.86901 56.2243 12.9064 59.5092 14.2661C60.5114 14.7285 60.812 14.9235 60.9397 16.2043C61.0118 16.9282 61.0394 17.769 61.0448 18.3871Z" fill="#FF3E37"/>
<path d="M0.796648 18.4958C13.645 18.2209 39.2247 17.1927 51.8898 14.8903C52.2584 15.7496 52.7414 19.136 52.7679 20.3141C42.8665 22.7797 14.3611 24.0913 2.10913 23.7638C1.36994 22.5607 0.601198 19.8285 0.796648 18.4958Z" fill="#FF3E37"/>
</svg>
