<svg width="31" height="30" viewBox="0 0 31 30" fill="none" xmlns="http://www.w3.org/2000/svg">
<g filter="url(#filter0_d_28_158)">
<path d="M26.9914 3.95021C26.9915 3.77357 26.9448 3.60007 26.8561 3.44735C26.7673 3.29464 26.6397 3.16817 26.4862 3.08084C26.3326 2.9935 26.1587 2.94842 25.9821 2.95017C25.8054 2.95193 25.6324 3.00046 25.4807 3.09083C24.8954 3.43921 24.2652 3.70601 23.6077 3.88383C22.6686 3.07806 21.471 2.63713 20.2337 2.64164C18.8762 2.6432 17.5726 3.17223 16.5979 4.11702C15.6232 5.06181 15.0539 6.3484 15.01 7.70512C12.334 7.27838 9.90868 5.88164 8.19649 3.78126C8.09333 3.65609 7.96158 3.55757 7.81235 3.494C7.66313 3.43043 7.5008 3.40368 7.33907 3.41601C7.17743 3.42932 7.02147 3.4818 6.88467 3.56892C6.74786 3.65603 6.63434 3.77516 6.55391 3.91601C6.14144 4.63582 5.90454 5.44276 5.86246 6.27131C5.82038 7.09986 5.9743 7.92666 6.31172 8.68456L6.30977 8.68651C6.15812 8.77991 6.03296 8.91066 5.94628 9.06625C5.85959 9.22185 5.81427 9.39708 5.81465 9.57519C5.81282 9.72211 5.82163 9.86898 5.84102 10.0146C5.94316 11.2729 6.50081 12.4507 7.40938 13.3271C7.34775 13.4446 7.31013 13.5731 7.29873 13.7052C7.28732 13.8373 7.30237 13.9704 7.34297 14.0967C7.73909 15.3308 8.58147 16.3727 9.70528 17.0185C8.56352 17.46 7.3307 17.614 6.11543 17.4668C5.89051 17.4386 5.66266 17.4876 5.46928 17.6059C5.2759 17.7242 5.12846 17.9047 5.05115 18.1178C4.97384 18.3309 4.97124 18.5639 5.04379 18.7787C5.11634 18.9935 5.25973 19.1772 5.45043 19.2998C7.54053 20.646 9.97411 21.3617 12.4602 21.3613C15.2795 21.393 18.0302 20.4921 20.2844 18.7988C22.5387 17.1054 24.1702 14.7145 24.925 11.998C25.2781 10.8146 25.4583 9.58648 25.4602 8.35157C25.4602 8.28614 25.4602 8.21876 25.4592 8.15138C25.9813 7.58831 26.3858 6.92668 26.6489 6.20527C26.912 5.48387 27.0284 4.7172 26.9914 3.95021ZM23.6848 7.16212C23.5196 7.35746 23.436 7.60891 23.4514 7.86427C23.4611 8.02927 23.4602 8.19527 23.4602 8.35157C23.4581 9.39511 23.3052 10.4329 23.0061 11.4326C22.3896 13.744 21.0152 15.7817 19.1031 17.2192C17.1911 18.6568 14.8519 19.4111 12.4602 19.3613C11.6011 19.3616 10.7449 19.2606 9.90942 19.0606C10.9748 18.7172 11.971 18.1879 12.8518 17.4971C13.014 17.3693 13.1328 17.1945 13.1917 16.9967C13.2506 16.7988 13.2469 16.5875 13.181 16.3918C13.1151 16.1961 12.9902 16.0257 12.8236 15.9038C12.6569 15.7819 12.4566 15.7145 12.2502 15.7109C11.419 15.698 10.6253 15.363 10.0363 14.7764C10.1858 14.7481 10.3342 14.7129 10.4817 14.6709C10.6977 14.6094 10.8867 14.477 11.0183 14.295C11.1499 14.1131 11.2165 13.8921 11.2072 13.6677C11.198 13.4433 11.1135 13.2285 10.9673 13.058C10.8212 12.8874 10.6219 12.7711 10.4016 12.7275C9.91911 12.6323 9.46512 12.427 9.07489 12.1277C8.68466 11.8284 8.3687 11.4432 8.15157 11.002C8.3323 11.0266 8.51418 11.0419 8.69649 11.0479C8.91308 11.0511 9.12509 10.9854 9.30187 10.8603C9.47865 10.7351 9.61104 10.5569 9.67989 10.3516C9.74587 10.1443 9.74248 9.92123 9.67022 9.7161C9.59797 9.51096 9.46079 9.33499 9.2795 9.21485C8.83965 8.92182 8.47935 8.52427 8.23086 8.0578C7.98237 7.59134 7.85346 7.07052 7.85567 6.54201C7.85567 6.47561 7.85762 6.4092 7.86153 6.34377C10.1028 8.43402 13.0099 9.66621 16.0705 9.82326C16.225 9.82934 16.3789 9.80024 16.5205 9.73816C16.6621 9.67607 16.7877 9.58262 16.8879 9.46486C16.9871 9.34596 17.0573 9.20566 17.0931 9.05501C17.1288 8.90437 17.1291 8.74748 17.0939 8.5967C17.0367 8.35806 17.0076 8.11357 17.007 7.86818C17.0079 7.01271 17.3482 6.19254 17.9531 5.58764C18.558 4.98274 19.3781 4.64251 20.2336 4.64161C20.6737 4.64043 21.1093 4.7305 21.5129 4.90615C21.9165 5.0818 22.2792 5.3392 22.5783 5.66212C22.6937 5.7862 22.8388 5.87871 23 5.93085C23.1612 5.98299 23.333 5.99303 23.4992 5.96001C23.91 5.88006 24.3149 5.7724 24.7111 5.63775C24.4409 6.19072 24.0955 6.70369 23.6848 7.16212Z" fill="#2400FD"/>
</g>
<defs>
<filter id="filter0_d_28_158" x="0" y="0" width="32" height="32" filterUnits="userSpaceOnUse" color-interpolation-filters="sRGB">
<feFlood flood-opacity="0" result="BackgroundImageFix"/>
<feColorMatrix in="SourceAlpha" type="matrix" values="0 0 0 0 0 0 0 0 0 0 0 0 0 0 0 0 0 0 127 0" result="hardAlpha"/>
<feOffset dy="4"/>
<feGaussianBlur stdDeviation="2"/>
<feComposite in2="hardAlpha" operator="out"/>
<feColorMatrix type="matrix" values="0 0 0 0 0 0 0 0 0 0 0 0 0 0 0 0 0 0 0.25 0"/>
<feBlend mode="normal" in2="BackgroundImageFix" result="effect1_dropShadow_28_158"/>
<feBlend mode="normal" in="SourceGraphic" in2="effect1_dropShadow_28_158" result="shape"/>
</filter>
</defs>
</svg>
