<svg width="32" height="30" viewBox="0 0 32 30" fill="none" xmlns="http://www.w3.org/2000/svg">
<path d="M15.0131 0.941142C12.1117 7.59846 8.54803 14.8913 5.19853 21.0959C5.05747 19.1197 4.90888 16.9275 4.84732 15.1646C4.61363 8.47267 4.68204 3.21107 4.6431 2.09575C4.62928 1.69999 4.58576 1.48538 4.51003 1.37996C4.39582 1.20384 4.0695 1.14319 3.70972 1.15576C2.81027 1.18717 1.42346 1.70388 0.859117 2.04778C0.769686 4.64449 0.827936 7.3441 0.924678 10.1144C1.10434 15.2593 1.40576 20.7961 1.90214 26.7584C1.95948 27.3688 2.01179 27.8353 2.16324 28.0461C2.4674 28.5038 4.10777 29.0589 4.90431 29.1751C9.18627 21.8212 13.3686 13.6783 17.8852 3.75862C18.0847 3.28337 18.2818 2.73616 18.2742 2.52029C18.2529 1.90867 16.3866 1.07329 15.0131 0.941142ZM28.9047 1.7168C27.9638 0.560937 27.2999 0.115837 26.6163 0.139708C23.6661 0.242731 17.9605 9.12326 16.5257 13.424C16.3287 13.9712 16.2668 14.2615 16.2806 14.6573C16.3058 15.3768 16.5928 16.3754 17.1191 17.0054C22.3716 18.8753 25.0198 20.4398 26.1816 21.732C25.314 23.7075 23.7264 24.6635 21.7476 24.7326C19.5889 24.808 16.8207 23.9321 15.1054 22.2629C14.4406 22.8265 13.7726 24.3267 13.8002 25.1182C13.8618 26.8811 17.4889 28.6276 21.0867 28.502C24.3967 28.3864 27 26.6024 28.2579 23.4246C28.7214 22.2557 28.8996 21.1688 28.877 20.5212C28.7765 17.643 24.4582 15.7045 20.4081 14.225C22.183 10.3807 24.288 6.70496 27.144 3.90359L27.1452 3.93956C27.2181 6.02629 26.4355 9.40366 25.6507 10.6558C26.2464 11.2114 28.1746 11.7564 28.7143 11.7376C30.0455 11.6911 30.8775 7.66358 30.8171 5.93663C30.7644 4.42555 29.9573 2.97684 28.9047 1.7168Z" fill="#FF3E37" fill-opacity="0.96"/>
</svg>
